<svg width="317" height="317" viewBox="0 0 317 317" fill="none" xmlns="http://www.w3.org/2000/svg">
<path d="M123.726 36.5115L140.971 48.8667L141.763 49.4342L142.351 48.6572L155.15 31.7396L168.781 47.9953L169.407 48.7419L170.169 48.1355L186.774 34.9325L195.934 54.0672L196.354 54.946L197.244 54.5483L216.61 45.8896L220.723 66.701L220.912 67.6568L221.873 67.4928L242.784 63.9224L241.592 85.1029L241.538 86.0756L242.509 86.1557L263.651 87.8978L257.23 108.117L256.935 109.045L257.855 109.364L277.9 116.309L266.652 134.296L266.135 135.122L266.948 135.66L284.636 147.372L269.268 161.996L268.562 162.668L269.215 163.391L283.435 179.134L264.913 189.477L264.062 189.952L264.515 190.814L274.373 209.599L253.861 215.011L252.919 215.259L253.143 216.208L258.019 236.854L236.806 236.994L235.831 237.001L235.812 237.975L235.401 259.185L214.819 254.045L213.874 253.809L213.613 254.748L207.94 275.19L189.283 265.093L188.426 264.629L187.94 265.474L177.362 283.862L161.802 269.443L161.087 268.781L160.406 269.478L145.588 284.658L134.102 266.822L133.574 266.003L132.742 266.509L114.613 277.527L107.924 257.395L107.617 256.471L106.685 256.754L86.3858 262.917L84.9134 241.754L84.8458 240.782L83.8724 240.824L62.6784 241.746L66.5153 220.882L66.6915 219.923L65.7382 219.722L44.9809 215.344L53.8859 196.09L54.2949 195.205L53.4215 194.773L34.4052 185.371L47.8188 168.936L48.4349 168.181L47.6963 167.545L31.6158 153.709L48.6953 141.126L49.4797 140.548L48.9224 139.749L36.7881 122.348L56.4601 114.408L57.3636 114.043L57.0226 113.131L49.5969 93.2587L70.6256 90.4605L71.5914 90.3319L71.488 89.3631L69.2376 68.2688L90.3015 70.788L91.2689 70.9037L91.4097 69.9397L94.476 48.9484L114.252 56.6269L115.16 56.9795L115.536 56.0807L123.726 36.5115Z" fill="#F2AA3C" stroke="#181818" stroke-width="2"/>
<path d="M131.428 175.9C131.428 177.94 129.508 178 127.888 178H116.188C114.748 178 113.128 177.88 113.128 176.08C113.128 174.4 114.508 173.98 115.828 173.5C116.188 173.38 116.428 173.14 116.608 172.78C117.268 171.4 117.148 166.24 117.148 164.68C117.148 160.84 117.028 159.58 112.948 159.52C111.508 159.52 110.068 159.46 108.628 159.46H107.608C106.348 159.46 102.148 159.28 101.128 160.24C100.228 161.08 100.228 162.64 100.228 163.78C100.228 166.24 100.288 168.7 100.348 171.16C100.348 172 100.468 172.84 101.308 173.2C102.748 173.8 104.128 174.1 104.128 175.96C104.128 177.58 102.988 178 101.548 178H89.4278C87.8078 178 85.8878 177.94 85.8878 175.9C85.8878 173.5 88.8278 174.04 89.6078 172.72C90.2078 171.7 90.2078 165.64 90.2078 164.86V151.12C90.2078 150.52 90.2078 144.1 89.6078 143.26C88.7678 142 85.8878 142.54 85.8878 140.08C85.8878 138.04 87.8078 137.98 89.4278 137.98H101.308C102.928 137.98 104.368 138.22 104.368 140.14C104.368 143.32 100.708 141.1 100.528 143.98C100.408 145.84 100.408 147.64 100.408 149.5C100.408 153.28 100.348 154.06 104.368 154.06H112.708C116.488 154.06 117.148 153.4 117.148 149.62C117.148 148.24 117.088 146.86 117.088 145.48C117.088 144.22 117.208 142.78 115.768 142.36C114.388 142 113.188 141.82 113.188 140.08C113.188 138.46 114.628 137.98 116.008 137.98H127.888C129.628 137.98 131.428 137.74 131.428 139.9C131.428 142.3 128.488 141.76 127.708 143.08C127.108 144.1 127.108 150.16 127.108 150.94V164.86C127.108 165.52 127.108 171.82 127.708 172.72C128.608 174.1 131.428 173.5 131.428 175.9ZM165.309 165.88C165.309 174.7 156.789 178.42 149.109 178.42C140.469 178.42 133.929 173.92 133.929 164.8C133.929 156.4 140.589 150.82 148.749 150.82C157.089 150.82 165.309 157.12 165.309 165.88ZM156.669 169C156.669 165.82 155.109 161.92 153.309 159.34C151.809 157.18 149.109 154.3 146.289 154.3C143.229 154.3 141.909 157.12 141.909 159.82C141.909 164.86 146.109 174.22 151.989 174.22C155.109 174.22 156.669 171.94 156.669 169ZM214.823 153.1C214.823 154.3 213.863 154.6 212.963 155.14C211.583 155.98 210.743 157.36 210.083 158.8L202.343 176.02C201.443 178.06 201.803 178 199.523 178H196.523C194.543 178 194.663 177.94 194.003 176.2L189.503 164.2L184.703 176.38C184.043 178 183.863 178 182.123 178H179.003C178.343 178 176.843 178.06 176.603 177.28C176.483 177.16 176.123 176.26 176.063 176.08L169.163 159.82C168.143 157.48 167.663 156.34 165.263 155.32C164.363 154.9 163.703 154.36 163.703 153.34C163.703 151.9 164.963 151.54 166.163 151.54H177.263C178.703 151.54 179.843 151.9 179.843 153.52C179.843 155.98 176.783 155.26 176.783 156.76C176.783 158.08 181.283 167.08 181.823 168.22L185.543 158.92C185.783 158.32 185.963 157.42 185.963 156.76C185.963 154.84 183.203 155.2 183.203 153.28C183.203 152.02 184.343 151.54 185.423 151.54H195.803C197.183 151.54 198.443 151.78 198.443 153.4C198.443 155.74 195.503 155.14 195.503 156.7C195.503 157.36 195.803 158.26 196.043 158.86L199.703 168.16L203.843 158.74C204.143 158.02 204.443 157.18 204.443 156.4C204.443 154.3 201.863 155.14 201.863 153.04C201.863 151.72 203.003 151.54 204.083 151.54H212.603C213.683 151.54 214.823 151.78 214.823 153.1ZM237.104 148.66C237.104 152.38 235.784 155.56 233.024 158.08L230.744 160.18C229.364 161.44 227.684 163.06 227.324 164.98C227.084 166.36 226.964 167.08 225.404 167.08C223.424 167.08 222.824 165.58 222.824 163.84C222.824 160.66 224.444 158.98 226.244 156.52C227.504 154.78 229.304 151.84 229.304 149.62C229.304 147.82 228.344 145.3 226.184 145.3C224.384 145.3 223.364 146.86 223.364 148.54C223.364 149.62 223.724 150.28 224.864 150.4C224.864 150.52 224.924 150.64 224.924 150.76C224.924 152.32 222.524 153.4 221.204 153.4C217.424 153.4 215.204 150.28 215.204 146.74C215.204 140.86 220.304 137.5 225.764 137.5C232.244 137.5 237.104 142.12 237.104 148.66ZM230.024 175.54C230.024 177.76 229.724 178 227.504 178H223.184C221.084 178 220.844 177.64 220.844 175.54V171.1C220.844 169.12 221.084 168.7 223.124 168.7H227.324C229.304 168.7 230.024 168.82 230.024 170.92V175.54Z" fill="#222222"/>
</svg>
