<svg width="317" height="317" viewBox="0 0 317 317" fill="none" xmlns="http://www.w3.org/2000/svg">
<path d="M123.726 36.5115L140.971 48.8667L141.763 49.4342L142.351 48.6572L155.15 31.7396L168.781 47.9953L169.407 48.7419L170.169 48.1355L186.774 34.9325L195.934 54.0672L196.354 54.946L197.244 54.5483L216.61 45.8896L220.723 66.701L220.912 67.6568L221.873 67.4928L242.784 63.9224L241.592 85.1029L241.538 86.0756L242.509 86.1557L263.651 87.8978L257.23 108.117L256.935 109.045L257.855 109.364L277.9 116.309L266.652 134.296L266.135 135.122L266.948 135.66L284.636 147.372L269.268 161.996L268.562 162.668L269.215 163.391L283.435 179.134L264.913 189.477L264.062 189.952L264.515 190.814L274.373 209.599L253.861 215.011L252.919 215.259L253.143 216.208L258.019 236.854L236.806 236.994L235.831 237.001L235.812 237.975L235.401 259.185L214.819 254.045L213.874 253.809L213.613 254.748L207.94 275.19L189.283 265.093L188.426 264.629L187.94 265.474L177.362 283.862L161.802 269.443L161.087 268.781L160.406 269.478L145.588 284.658L134.102 266.822L133.574 266.003L132.742 266.509L114.613 277.527L107.924 257.395L107.617 256.471L106.685 256.754L86.3858 262.917L84.9134 241.754L84.8458 240.782L83.8724 240.824L62.6784 241.746L66.5153 220.882L66.6915 219.923L65.7382 219.722L44.9809 215.344L53.8859 196.09L54.2949 195.205L53.4215 194.773L34.4052 185.371L47.8188 168.936L48.4349 168.181L47.6963 167.545L31.6158 153.709L48.6953 141.126L49.4797 140.548L48.9224 139.749L36.7881 122.348L56.4601 114.408L57.3636 114.043L57.0226 113.131L49.5969 93.2587L70.6256 90.4605L71.5914 90.3319L71.488 89.3631L69.2376 68.2688L90.3015 70.788L91.2689 70.9037L91.4097 69.9397L94.476 48.9484L114.252 56.6269L115.16 56.9795L115.536 56.0807L123.726 36.5115Z" fill="#34772C" stroke="#181818" stroke-width="2"/>
<path d="M140.892 144.351C141.325 145.724 140.574 146.338 139.556 147.099C138.345 148.046 138.271 149.013 138.153 150.434L134.755 184.402C134.591 186.278 134.573 186.22 132.741 186.797C131.711 187.121 130.738 187.427 129.708 187.752C127.877 188.328 127.798 188.479 126.589 187.035L116.244 174.755L115.535 189.886C115.464 191.858 115.457 192.238 113.511 192.85L109.849 194.003C108.132 194.544 107.605 194.269 106.489 192.922L84.9422 167.436C84.2353 166.589 83.3811 165.474 82.2068 165.34C81.0326 165.207 79.8371 165.206 79.4227 163.889C78.8822 162.172 80.0332 161.433 81.5213 160.964L92.9675 157.361C94.5128 156.875 96.0368 156.521 96.6314 158.409C97.406 160.87 94.0517 160.605 94.6462 162.494C94.8083 163.009 95.0669 163.431 95.3827 163.835L109.584 180.374L110.098 167.82C110.087 167.383 110.075 166.947 109.949 166.546C109.192 164.142 106.209 166.654 105.398 164.079C104.84 162.304 106.409 161.496 107.84 161.045L117.913 157.875C119.286 157.442 120.979 157.224 121.519 158.941C122.312 161.459 118.78 161.628 119.302 163.287C119.482 163.86 120.078 164.553 120.469 164.996L128.757 174.338L130.799 153.252C130.866 152.665 130.933 152.078 130.753 151.506C129.96 148.987 127.42 151.108 126.681 148.761C126.267 147.445 127.192 146.588 128.394 146.209L137.837 143.237C139.211 142.805 140.388 142.748 140.892 144.351ZM183.602 169.088C183.962 170.233 183.287 170.886 182.257 171.21L172.069 174.417C171.039 174.741 169.422 174.999 169.008 173.682C168.359 171.622 171.326 171.254 170.641 169.08C169.866 166.619 165.945 160.556 164.294 158.308C163.292 156.925 162.101 155.539 160.213 156.133C156.264 157.377 158.505 162.898 159.298 165.417C159.784 166.962 161.014 171.67 162.384 172.622C162.871 172.972 163.458 173.039 163.988 173.124C164.858 173.29 165.689 173.532 165.978 174.448C166.464 175.993 164.973 176.651 163.771 177.029L154.614 179.912C153.355 180.308 151.87 180.587 151.384 179.042C151.095 178.126 151.581 177.47 152.199 176.835C152.584 176.462 153.027 176.071 153.227 175.505C153.764 174.015 152.295 169.948 151.845 168.517L147.287 154.038C146.981 153.065 146.338 150.625 145.378 150.173C145.002 149.977 144.565 149.988 144.111 149.943C143.277 149.891 142.632 149.842 142.344 148.926C142.092 148.125 142.463 147.505 142.966 146.906L148.6 140.226C148.929 139.871 149.24 139.459 149.755 139.297C150.956 138.918 151.407 140.349 151.677 141.208L156.073 155.172C157.5 152.71 158.769 150.549 161.574 149.666C167.869 147.685 171.452 154.671 174.207 159.025C174.964 160.233 175.74 161.499 176.498 162.707C177.568 164.509 178.909 167.169 181.14 167.662C182.218 167.889 183.223 167.887 183.602 169.088ZM206.243 137.681C206.622 138.883 205.853 139.439 205.1 140.242C203.496 141.942 203.043 144.098 202.815 146.371L200.787 164.308C200.207 169.46 198.798 175.376 193.247 177.123C190.557 177.97 189.06 177.812 187.623 175.245C186.923 174.019 185.314 171.506 184.918 170.247C184.665 169.446 184.85 168.633 185.708 168.362C187.597 167.768 188.762 171.867 192.424 170.714C194.485 170.066 195.185 167.895 195.464 165.983L181.767 151.047C180.705 149.871 179.923 148.985 178.334 148.731C177.216 148.579 176.286 148.621 175.908 147.419C175.493 146.102 176.301 145.471 177.445 145.111L187.575 141.922C188.606 141.597 189.786 141.352 190.201 142.668C190.849 144.728 188.193 144.684 188.734 146.401C188.842 146.744 189.618 148.009 189.897 148.299L196.868 155.855L197.979 146.195C198.067 145.476 198.047 144.413 197.83 143.726C197.308 142.066 194.973 143.241 194.415 141.467C194 140.151 194.787 139.652 195.931 139.291L203.715 136.841C204.802 136.499 205.847 136.422 206.243 137.681ZM226.167 126.629C227.284 130.177 226.98 133.607 225.104 136.839L223.56 139.527C222.622 141.143 221.505 143.193 221.739 145.132C221.924 146.52 222.026 147.243 220.538 147.712C218.649 148.306 217.626 147.056 217.104 145.396C216.149 142.363 217.19 140.274 218.168 137.387C218.848 135.349 219.682 132.004 219.015 129.886C218.475 128.169 216.802 126.054 214.742 126.702C213.025 127.243 212.521 129.037 213.025 130.64C213.349 131.67 213.891 132.191 215.014 131.963C215.05 132.078 215.144 132.174 215.18 132.289C215.648 133.777 213.683 135.528 212.424 135.924C208.818 137.059 205.764 134.75 204.701 131.373C202.936 125.764 206.791 121.028 211.999 119.388C218.18 117.443 224.203 120.39 226.167 126.629ZM227.485 154.394C228.151 156.512 227.937 156.831 225.82 157.497L221.699 158.794C219.696 159.425 219.359 159.154 218.728 157.151L217.395 152.915C216.801 151.027 216.903 150.554 218.849 149.942L222.856 148.68C224.744 148.086 225.467 147.984 226.098 149.987L227.485 154.394Z" fill="#222222"/>
</svg>
