<svg width="612" height="479" viewBox="0 0 612 479" fill="none" xmlns="http://www.w3.org/2000/svg">
<path d="M253.716 76.6359L277.236 93.487L278.028 94.0545L278.616 93.2775L296.073 70.2038L314.663 92.3747L315.289 93.1213L316.052 92.5149L338.699 74.5075L351.191 100.605L351.612 101.484L352.501 101.086L378.915 89.2766L384.525 117.661L384.714 118.617L385.674 118.453L414.195 113.583L412.57 142.471L412.515 143.444L413.486 143.524L442.322 145.9L433.563 173.476L433.268 174.404L434.189 174.723L461.528 184.196L446.187 208.728L445.67 209.554L446.483 210.092L470.607 226.065L449.647 246.011L448.941 246.683L449.594 247.406L468.988 268.877L443.727 282.984L442.876 283.459L443.329 284.322L456.773 309.942L428.797 317.323L427.855 317.571L428.079 318.52L434.73 346.678L405.797 346.87L404.823 346.877L404.804 347.851L404.243 376.779L376.172 369.769L375.227 369.533L374.966 370.472L367.229 398.352L341.782 384.581L340.925 384.118L340.44 384.962L326.012 410.042L304.789 390.376L304.075 389.714L303.394 390.411L283.183 411.115L267.518 386.789L266.99 385.969L266.158 386.475L241.433 401.502L232.309 374.045L232.002 373.12L231.07 373.403L203.384 381.809L201.376 352.946L201.309 351.974L200.335 352.016L171.429 353.273L176.662 324.816L176.838 323.858L175.885 323.657L147.574 317.686L159.72 291.425L160.129 290.54L159.255 290.109L133.319 277.284L151.614 254.869L152.23 254.114L151.492 253.478L129.56 234.607L152.854 217.445L153.638 216.868L153.081 216.068L136.531 192.335L163.362 181.506L164.265 181.142L163.924 180.229L153.796 153.126L182.477 149.309L183.443 149.181L183.34 148.212L180.27 119.442L208.999 122.878L209.966 122.993L210.107 122.029L214.289 93.3997L241.261 103.872L242.169 104.225L242.545 103.326L253.716 76.6359Z" fill="#CC2D1E" stroke="#181818" stroke-width="2"/>
<path d="M280.291 187.082C280.475 187.732 280.257 188.448 279.565 188.645C278.569 188.927 277.001 188.016 276.148 187.649C272.795 186.215 269.054 186.715 265.677 187.672C264.552 187.992 262.016 188.617 261.631 189.896C261.463 190.458 261.591 191.077 261.738 191.596L262.119 192.938C262.77 195.233 263.276 195.37 265.528 194.731C267.173 194.264 267.63 194.228 268.536 192.802C268.827 192.345 269.081 192.086 269.6 191.939C270.336 191.73 270.818 192.108 271.324 192.573L275.488 196.537C275.803 196.822 276.099 197.205 276.222 197.638C276.443 198.418 276.027 199.097 275.248 199.318C274.426 199.551 273.37 198.962 272.629 198.657C270.615 197.825 268.866 197.76 266.788 198.35C263.887 199.172 264.022 199.648 264.82 202.462L266.859 209.649C267.436 211.684 269.9 209.816 270.489 211.894C270.919 213.409 269.459 213.87 268.29 214.201L260.368 216.448C259.199 216.78 257.801 217.129 257.384 215.657C256.893 213.926 259.124 213.714 259.417 212.602C259.641 211.743 258.413 207.414 258.241 206.807L255.921 198.625C255.282 196.374 254.631 194.08 253.776 191.89C253.383 190.832 252.95 190.955 251.899 190.879C251.003 190.852 250.299 190.678 250.029 189.725C249.623 188.297 250.966 187.916 252.091 187.597L267.936 183.103C269.148 182.759 269.742 182.544 270.541 181.569C270.932 181.13 271.297 180.606 271.903 180.434C272.683 180.213 273.405 180.616 273.967 181.112L279.459 185.962C279.773 186.247 280.18 186.693 280.291 187.082ZM304.395 194.512C306.2 200.876 300.813 205.304 295.272 206.876C289.038 208.644 283.398 206.735 281.532 200.155C279.813 194.094 283.476 188.705 289.364 187.035C295.381 185.328 302.602 188.192 304.395 194.512ZM298.799 198.532C298.148 196.237 296.224 193.743 294.398 192.249C292.873 190.998 290.336 189.472 288.301 190.049C286.093 190.676 285.718 192.98 286.27 194.929C287.302 198.565 292.248 204.459 296.49 203.256C298.742 202.617 299.401 200.653 298.799 198.532ZM321.013 179.462C321.087 179.722 321.117 179.994 321.104 180.278L320.859 185.68C320.814 186.347 320.832 186.904 320.096 187.112C319.1 187.395 318.307 185.094 316.099 185.72C313.112 186.567 313.557 189.622 314.22 191.959L314.785 193.951C315.289 195.726 315.515 197.018 317.449 197.405C318.098 197.549 318.715 197.748 318.912 198.44C319.219 199.523 318.198 200.046 317.332 200.292L310.319 202.281C309.409 202.539 308.204 202.74 307.872 201.571C307.676 200.879 308.097 200.385 308.574 199.922C308.871 199.651 309.168 199.38 309.342 199.003C309.82 197.885 308.794 194.761 308.475 193.636L307.505 190.216C307.075 188.701 306.716 188.755 305.443 188.883C304.899 188.944 304.306 188.504 304.159 187.984C304.036 187.551 304.296 187.15 304.581 186.835L309.319 181.936C309.573 181.677 309.84 181.461 310.229 181.351C311.225 181.069 311.445 182.175 311.697 182.899C311.974 183.709 312.133 184.6 312.496 185.385C313.961 182.304 314.948 180.013 318.412 179.03C319.104 178.834 320.731 178.466 321.013 179.462ZM217.933 273.621C218.351 275.093 216.978 275.53 215.809 275.861L207.497 278.219C206.328 278.55 204.93 278.9 204.512 277.428C204.021 275.696 206.253 275.484 206.546 274.372C206.77 273.513 205.518 269.098 205.37 268.578L202.558 258.664C202.436 258.231 201.122 253.599 200.517 253.116C199.653 252.378 197.685 253.357 197.182 251.582C196.765 250.11 198.138 249.674 199.307 249.343L207.619 246.985C208.831 246.641 210.173 246.261 210.615 247.819C211.094 249.508 208.918 249.751 208.613 250.819C208.388 251.678 209.641 256.094 209.788 256.613L212.6 266.527C212.76 267.09 213.988 271.419 214.642 272.076C215.487 272.912 217.442 271.89 217.933 273.621ZM244.304 266.423C244.598 267.462 243.75 267.936 242.885 268.182L235.222 270.355C234.399 270.588 233.546 270.55 233.276 269.597C232.834 268.039 235.332 267.938 234.767 265.947C234.644 265.514 234.391 265.118 234.194 264.753L231.077 259.369C230.325 258.039 228.667 255.656 226.806 256.184C224.555 256.822 224.827 259.598 225.331 261.373L225.969 263.624C226.288 264.75 227.061 267.805 227.863 268.653C228.653 269.458 230.217 269.202 230.549 270.371C230.844 271.41 229.81 271.89 228.988 272.123L222.061 274.088C221.238 274.321 220.107 274.455 219.812 273.416C219.395 271.944 221.614 271.689 221.229 269.506C221.04 268.343 220.708 267.175 220.389 266.049L219.493 262.889C219.186 261.806 218.866 260.681 217.556 260.678C216.901 260.677 216.072 260.725 215.851 259.946C215.716 259.469 216.014 258.87 216.343 258.543C217.073 257.822 221.402 253.46 222.052 253.276C223.264 252.932 223.587 255.226 223.808 256.005C224.992 254.079 225.942 252.313 228.236 251.662C231.916 250.618 234.334 253.207 236.096 256.121L239.966 262.508C240.761 263.826 241.148 264.698 242.6 265.363C243.236 265.463 244.107 265.73 244.304 266.423ZM259.228 259.617C259.547 260.743 258.37 262.199 257.639 262.921C256.506 264.038 254.637 265.035 253.122 265.465C251.044 266.055 246.742 266.059 245.993 263.418C245.845 262.898 245.741 262.367 245.681 261.822C245.431 260.116 245.051 258.446 244.572 256.758C244.117 255.156 243.694 253.499 243.023 251.958C242.611 250.999 242.215 251.252 241.306 251.51C240.44 251.755 239.419 252.279 239.087 251.11C238.903 250.461 239.139 249.973 239.449 249.417C239.666 249.028 239.97 248.614 240.187 248.225C241.614 245.669 242.719 242.97 243.769 240.24C243.993 239.709 244.154 239.289 244.717 239.129C245.54 238.896 245.779 239.576 245.963 240.226L247.179 244.512C247.265 244.815 247.504 245.823 247.869 245.953C248.289 246.115 252.797 244.696 253.49 244.499C254.01 244.352 254.368 244.297 254.54 244.903C254.737 245.596 254.962 247.543 253.966 247.826C253.533 247.948 253.057 248.083 252.624 248.206C251.845 248.427 251.053 248.605 250.274 248.826C248.542 249.317 248.691 249.181 249.243 251.13L250.361 255.069C250.582 255.849 250.846 256.615 251.067 257.395C251.337 258.347 252.018 260.914 253.081 261.361C253.457 261.535 253.946 261.443 254.335 261.332C256.197 260.804 256.658 259.13 257.697 258.835C258.346 258.651 259.032 258.925 259.228 259.617ZM280 251.808C280.295 252.847 279.34 254.427 278.764 255.199C276.954 257.724 273.742 259.757 270.798 260.592C264.954 262.25 259.327 259.729 257.621 253.712C256 247.997 259.621 242.293 265.205 240.709C268.063 239.898 271.233 240.356 273.677 242.048C274.369 242.507 276.208 244.043 276.429 244.822C276.552 245.255 274.534 246.716 274.23 247.13L266.045 253.895C267.803 255.969 270.193 256.975 272.877 256.214C274.999 255.612 276.621 254.076 277.688 252.23C277.936 251.785 278.191 251.199 278.753 251.039C279.359 250.867 279.841 251.245 280 251.808ZM269.742 247.14C269.595 246.62 268.904 245.834 268.522 245.475C267.417 244.385 265.886 243.603 264.327 244.045C262.249 244.634 261.831 246.624 262.372 248.529C262.556 249.178 263.762 252.11 264.628 251.865C265.104 251.73 268.324 248.899 268.813 248.479C269.153 248.196 269.89 247.659 269.742 247.14ZM294.523 233.75C294.597 234.01 294.627 234.282 294.614 234.566L294.369 239.968C294.324 240.635 294.342 241.192 293.606 241.401C292.61 241.683 291.817 239.382 289.609 240.008C286.622 240.855 287.067 243.91 287.731 246.248L288.295 248.239C288.799 250.014 289.025 251.306 290.959 251.693C291.608 251.837 292.225 252.036 292.422 252.728C292.729 253.811 291.708 254.334 290.842 254.58L283.829 256.569C282.92 256.827 281.714 257.028 281.382 255.86C281.186 255.167 281.607 254.673 282.084 254.211C282.381 253.939 282.678 253.668 282.852 253.291C283.33 252.173 282.304 249.05 281.985 247.924L281.015 244.504C280.585 242.989 280.227 243.044 278.953 243.171C278.409 243.232 277.816 242.792 277.669 242.272C277.546 241.839 277.807 241.438 278.092 241.123L282.83 236.225C283.084 235.965 283.35 235.75 283.739 235.639C284.735 235.357 284.956 236.464 285.208 237.187C285.484 237.998 285.643 238.888 286.006 239.674C287.471 236.592 288.458 234.301 291.922 233.318C292.614 233.122 294.241 232.754 294.523 233.75ZM319.361 240.644C319.656 241.683 318.701 243.264 318.124 244.035C316.315 246.56 313.103 248.594 310.159 249.429C304.314 251.086 298.688 248.566 296.981 242.548C295.36 236.833 298.981 231.129 304.566 229.545C307.423 228.735 310.593 229.192 313.038 230.884C313.729 231.343 315.568 232.879 315.789 233.659C315.912 234.092 313.894 235.553 313.591 235.966L305.406 242.731C307.164 244.805 309.554 245.811 312.238 245.05C314.359 244.448 315.982 242.912 317.048 241.066C317.297 240.622 317.551 240.035 318.114 239.875C318.72 239.703 319.201 240.081 319.361 240.644ZM309.103 235.976C308.956 235.457 308.265 234.67 307.882 234.311C306.778 233.221 305.247 232.439 303.688 232.881C301.61 233.471 301.192 235.46 301.732 237.365C301.916 238.014 303.122 240.947 303.988 240.701C304.464 240.566 307.684 237.735 308.173 237.316C308.514 237.032 309.25 236.496 309.103 235.976ZM339.788 234.991C340.893 238.887 338.185 242.041 334.549 243.072C333.207 243.453 331.741 243.728 330.344 243.75C329.504 243.755 327.995 243.715 327.216 243.936C326.177 244.23 326.539 245.671 325.5 245.966C324.807 246.163 324.289 245.655 323.87 245.166L319.651 240.188C319.448 239.965 319.164 239.624 319.078 239.321C318.955 238.888 319.173 238.499 319.605 238.376C320.168 238.217 320.637 238.552 321.137 238.831C324.083 240.474 327.722 241.266 331.012 240.333C332.138 240.014 333.802 239.121 333.397 237.692C333.323 237.433 333.237 237.129 333.003 236.962C332.386 236.436 329.945 236.239 329.166 236.133L326.261 235.787C323.017 235.398 319.167 235.18 318.086 231.37C317.091 227.864 319.402 225.29 322.649 224.369C324.597 223.817 326.365 223.783 328.374 223.775C328.603 223.757 328.887 223.77 329.103 223.708C329.969 223.463 330.201 222.134 330.85 221.95C331.456 221.778 331.851 222.181 332.246 222.583L335.916 226.453C336.064 226.645 336.434 226.961 336.508 227.221C336.643 227.697 336.358 228.012 335.925 228.135C335.536 228.245 335.214 228.103 334.85 227.972C331.941 226.786 329.025 225.742 325.822 226.65C324.913 226.908 323.793 227.413 324.124 228.582C324.21 228.885 324.339 229.176 324.63 229.374C325.444 229.938 328.145 230.061 329.097 230.118C331.526 230.271 335.371 230.303 337.457 231.723C338.575 232.529 339.419 233.692 339.788 234.991ZM356.805 231.942C357.124 233.068 355.947 234.524 355.216 235.246C354.083 236.362 352.214 237.36 350.699 237.79C348.621 238.379 344.319 238.383 343.57 235.743C343.422 235.223 343.318 234.691 343.258 234.147C343.008 232.441 342.628 230.771 342.149 229.083C341.694 227.481 341.271 225.823 340.6 224.283C340.188 223.324 339.792 223.577 338.883 223.835C338.017 224.08 336.996 224.604 336.664 223.435C336.48 222.785 336.716 222.297 337.026 221.742C337.243 221.353 337.547 220.939 337.764 220.55C339.191 217.994 340.296 215.295 341.346 212.565C341.57 212.034 341.731 211.614 342.294 211.454C343.117 211.221 343.356 211.901 343.54 212.55L344.756 216.836C344.842 217.139 345.081 218.147 345.446 218.278C345.866 218.44 350.374 217.02 351.067 216.824C351.587 216.677 351.945 216.622 352.117 217.228C352.314 217.92 352.539 219.868 351.543 220.15C351.11 220.273 350.634 220.408 350.201 220.531C349.422 220.752 348.63 220.93 347.851 221.151C346.119 221.642 346.268 221.506 346.82 223.454L347.938 227.394C348.159 228.173 348.423 228.94 348.644 229.719C348.914 230.672 349.595 233.238 350.657 233.686C351.034 233.859 351.523 233.768 351.912 233.657C353.774 233.129 354.235 231.455 355.274 231.16C355.923 230.976 356.609 231.249 356.805 231.942ZM377.577 224.133C377.872 225.172 376.917 226.752 376.341 227.524C374.531 230.048 371.319 232.082 368.375 232.917C362.531 234.575 356.904 232.054 355.198 226.036C353.577 220.322 357.198 214.617 362.782 213.033C365.64 212.223 368.81 212.68 371.254 214.373C371.946 214.831 373.785 216.368 374.006 217.147C374.129 217.58 372.111 219.041 371.807 219.455L363.622 226.22C365.38 228.294 367.77 229.3 370.454 228.538C372.576 227.937 374.198 226.401 375.265 224.555C375.513 224.11 375.767 223.523 376.33 223.364C376.936 223.192 377.418 223.57 377.577 224.133ZM367.319 219.464C367.172 218.945 366.481 218.159 366.099 217.799C364.994 216.709 363.463 215.928 361.904 216.37C359.826 216.959 359.408 218.949 359.949 220.853C360.133 221.503 361.339 224.435 362.205 224.189C362.681 224.054 365.9 221.223 366.39 220.804C366.73 220.52 367.467 219.984 367.319 219.464ZM402.45 220.961C402.658 221.696 402.175 222.301 401.507 222.584L396.156 224.991C396.026 225.028 395.896 225.065 395.766 225.101C394.251 225.531 394.353 223.584 393.818 222.52C392.335 225.045 391.028 226.539 388.171 227.349C382.803 228.872 378.581 225.859 377.107 220.664C375.535 215.123 378.014 208.854 383.858 207.196C385.85 206.631 387.494 206.82 389.483 207.238L388.918 205.246C388.759 204.684 388.556 204.133 388.396 203.57C387.899 201.981 387.849 201.808 386.206 201.619C385.625 201.55 385.118 201.413 384.946 200.807C384.738 200.071 385.27 199.639 385.759 199.22L390.236 195.377C390.427 195.23 390.83 194.835 391.09 194.761C392.129 194.466 392.368 195.474 392.577 196.21C393.006 197.726 393.479 199.228 393.909 200.744L397.421 213.125C397.802 214.467 398.808 218.345 399.745 219.342C400.072 219.67 400.394 219.813 400.789 219.888C401.537 220.05 402.204 220.095 402.45 220.961ZM392.037 216.243C391.116 212.996 389.425 208.517 385.096 209.745C381.892 210.654 381.49 213.855 382.289 216.669C383.185 219.829 386.349 223.235 389.943 222.216C392.8 221.405 392.713 218.624 392.037 216.243ZM269.106 289.231C270.407 293.82 267.971 297.27 263.962 299.296C261.425 300.577 258.642 301.32 255.915 302.093L255.006 302.351C254.097 302.609 253.651 302.688 253.804 303.721C253.889 304.352 254.104 304.945 254.276 305.551C254.681 306.98 254.766 307.938 256.404 307.942C257.344 307.956 258.023 308.044 258.306 309.039C258.723 310.511 257.369 310.849 256.2 311.18L247.975 313.513C246.806 313.845 245.408 314.194 244.991 312.722C244.499 310.991 246.731 310.779 247.024 309.666C247.26 308.851 246.045 304.565 245.848 303.872L242.447 291.88C242.152 290.841 241.625 288.652 240.581 288.106C240.248 287.92 239.92 287.92 239.537 287.888C238.684 287.849 238.005 287.761 237.734 286.809C237.624 286.419 237.612 286.048 237.854 285.746C238.53 284.666 241.845 283.819 242.97 283.5C245.524 282.775 248.06 282.15 250.663 281.598C256.618 280.33 263.578 280.461 267.462 285.908C268.171 286.923 268.762 288.019 269.106 289.231ZM260.277 290.425C259.171 286.529 254.892 284.141 250.996 285.246C248.442 285.97 249.069 287.523 249.652 289.743C249.91 290.652 250.125 291.574 250.383 292.483L250.53 293.002C250.886 294.258 251.713 298.327 253.294 298.627C253.931 298.727 254.84 298.469 255.446 298.297C259.083 297.266 261.357 294.235 260.277 290.425ZM298.071 297.059C298.611 298.964 296.204 300.208 294.733 300.626C292.438 301.276 290.967 301.039 289.128 299.502C287.041 301.872 284.905 303.413 281.875 304.272C278.455 305.242 274.234 304.381 273.142 300.528C271.779 295.723 276.866 292.222 280.849 291.092C281.629 290.871 282.476 290.724 283.267 290.546C281.93 288.634 280.407 286.727 277.852 287.452C276.813 287.746 275.458 288.411 274.777 289.306C274.337 289.899 273.933 290.621 273.197 290.83C272.678 290.977 272.122 290.667 271.975 290.148C271.631 288.935 272.951 287.158 273.756 286.368C274.952 285.14 276.926 284.019 278.571 283.553C280.908 282.89 283.869 282.939 285.788 284.593C287.023 285.646 288.151 287.15 289.057 288.53L292.97 294.577C293.556 295.487 294.968 297.004 296.18 296.66C296.57 296.549 296.843 296.191 297.029 295.858C297.529 296.137 297.911 296.496 298.071 297.059ZM287.075 297.044C286.51 295.053 284.722 292.707 282.384 293.37C280.479 293.91 278.541 295.489 279.168 297.696C279.806 299.948 282.166 300.682 284.244 300.092C285.456 299.748 287.517 298.603 287.075 297.044ZM310.861 275.891C310.934 276.151 310.965 276.423 310.952 276.707L310.706 282.109C310.662 282.777 310.679 283.333 309.943 283.542C308.948 283.824 308.155 281.523 305.947 282.149C302.96 282.997 303.405 286.051 304.068 288.389L304.633 290.38C305.136 292.155 305.362 293.448 307.296 293.835C307.945 293.978 308.563 294.177 308.759 294.87C309.066 295.952 308.045 296.475 307.18 296.721L300.166 298.71C299.257 298.968 298.051 299.17 297.72 298.001C297.523 297.308 297.945 296.814 298.422 296.352C298.719 296.08 299.016 295.809 299.19 295.432C299.668 294.314 298.642 291.191 298.322 290.065L297.352 286.645C296.923 285.13 296.564 285.185 295.29 285.312C294.746 285.373 294.154 284.933 294.006 284.413C293.884 283.981 294.144 283.579 294.429 283.265L299.167 278.366C299.421 278.107 299.687 277.891 300.077 277.78C301.073 277.498 301.293 278.605 301.545 279.328C301.822 280.139 301.981 281.029 302.344 281.815C303.809 278.733 304.796 276.442 308.259 275.46C308.952 275.263 310.578 274.895 310.861 275.891ZM331.837 285.798C332.156 286.924 330.979 288.381 330.248 289.102C329.115 290.219 327.246 291.217 325.731 291.646C323.653 292.236 319.351 292.24 318.602 289.599C318.455 289.08 318.351 288.548 318.29 288.004C318.04 286.297 317.66 284.627 317.181 282.939C316.726 281.337 316.303 279.68 315.632 278.139C315.22 277.181 314.824 277.433 313.915 277.691C313.049 277.937 312.028 278.46 311.697 277.291C311.512 276.642 311.748 276.154 312.058 275.598C312.275 275.209 312.579 274.796 312.796 274.407C314.223 271.85 315.328 269.151 316.378 266.421C316.602 265.89 316.763 265.47 317.326 265.31C318.149 265.077 318.388 265.758 318.573 266.407L319.788 270.693C319.874 270.996 320.113 272.004 320.478 272.134C320.898 272.296 325.407 270.877 326.099 270.68C326.619 270.533 326.977 270.478 327.149 271.084C327.346 271.777 327.571 273.724 326.575 274.007C326.142 274.13 325.666 274.265 325.233 274.387C324.454 274.608 323.662 274.786 322.883 275.007C321.151 275.498 321.3 275.363 321.852 277.311L322.97 281.25C323.191 282.03 323.455 282.797 323.676 283.576C323.946 284.528 324.627 287.095 325.69 287.542C326.066 287.716 326.555 287.624 326.944 287.514C328.806 286.986 329.267 285.311 330.306 285.017C330.955 284.832 331.641 285.106 331.837 285.798ZM333.905 261.684C334.212 262.767 333.79 263.588 333.084 264.396C332.241 265.384 331.059 266.327 329.803 266.683C328.634 267.015 327.535 266.438 327.204 265.269C326.651 263.321 329.555 260.86 331.243 260.381C332.369 260.062 333.561 260.472 333.905 261.684ZM343.385 285.049C343.716 286.218 342.584 286.679 341.675 286.937L334.748 288.902C333.796 289.172 332.677 289.349 332.345 288.18C332.149 287.487 332.527 287.006 333.004 286.543C333.301 286.272 333.598 286.001 333.772 285.624C334.25 284.506 333.224 281.382 332.905 280.257L331.898 276.707C331.578 275.581 331.506 274.666 330.214 274.565C329.59 274.508 328.91 274.42 328.714 273.728C328.505 272.992 329.069 272.504 329.601 272.073C330.356 271.438 334.171 268.064 334.95 267.843C335.686 267.634 335.9 268.555 336.048 269.075L338.614 278.123C338.933 279.249 339.767 282.848 340.674 283.573C341.032 283.845 341.483 283.951 341.922 284.014C342.558 284.114 343.188 284.356 343.385 285.049ZM364.786 274.536C365.08 275.575 364.125 277.155 363.549 277.927C361.739 280.451 358.527 282.485 355.583 283.32C349.739 284.978 344.113 282.457 342.406 276.439C340.785 270.725 344.406 265.02 349.991 263.436C352.848 262.626 356.018 263.083 358.462 264.776C359.154 265.234 360.993 266.771 361.214 267.55C361.337 267.983 359.319 269.444 359.015 269.858L350.83 276.623C352.588 278.697 354.978 279.703 357.662 278.941C359.784 278.34 361.406 276.804 362.473 274.958C362.721 274.513 362.976 273.926 363.538 273.767C364.145 273.595 364.626 273.973 364.786 274.536ZM354.528 269.868C354.38 269.348 353.689 268.562 353.307 268.202C352.203 267.112 350.671 266.331 349.113 266.773C347.035 267.362 346.617 269.352 347.157 271.256C347.341 271.906 348.547 274.838 349.413 274.592C349.889 274.457 353.109 271.626 353.598 271.207C353.938 270.923 354.675 270.387 354.528 269.868ZM385.212 268.882C386.317 272.779 383.61 275.932 379.973 276.964C378.631 277.344 377.166 277.62 375.769 277.642C374.928 277.646 373.42 277.606 372.641 277.827C371.602 278.122 371.964 279.563 370.925 279.857C370.232 280.054 369.714 279.546 369.294 279.057L365.076 274.079C364.872 273.856 364.589 273.516 364.503 273.213C364.38 272.78 364.597 272.391 365.03 272.268C365.593 272.108 366.062 272.443 366.562 272.722C369.507 274.366 373.147 275.158 376.437 274.225C377.562 273.905 379.227 273.012 378.822 271.584C378.748 271.324 378.662 271.021 378.427 270.854C377.81 270.327 375.369 270.131 374.59 270.024L371.686 269.678C368.442 269.289 364.591 269.071 363.511 265.262C362.516 261.755 364.827 259.182 368.073 258.261C370.022 257.708 371.79 257.675 373.798 257.666C374.027 257.648 374.312 257.661 374.528 257.6C375.394 257.354 375.625 256.026 376.274 255.841C376.881 255.669 377.275 256.072 377.67 256.475L381.341 260.345C381.489 260.537 381.859 260.853 381.932 261.113C382.068 261.589 381.783 261.903 381.35 262.026C380.96 262.137 380.639 261.994 380.274 261.863C377.365 260.677 374.45 259.633 371.246 260.542C370.337 260.8 369.217 261.304 369.549 262.473C369.635 262.776 369.764 263.067 370.054 263.265C370.869 263.829 373.57 263.952 374.522 264.01C376.951 264.163 380.795 264.195 382.882 265.614C383.999 266.42 384.844 267.584 385.212 268.882ZM389.335 245.776C389.667 246.945 389.794 248.218 389.94 249.393L391.125 260.002C391.241 260.905 391.214 261.801 391.33 262.704C391.415 263.334 391.427 263.705 390.734 263.902C390.604 263.939 390.518 263.963 390.376 263.957C390.159 264.018 389.986 264.067 389.769 264.129C388.947 264.362 387.926 261.424 387.705 260.972L383.174 251.593C382.589 250.355 381.948 249.087 381.58 247.788C380.917 245.45 382.033 243.777 384.327 243.127C386.838 242.414 388.611 243.221 389.335 245.776ZM395.557 269.691C396.072 271.509 395.553 271.656 393.864 272.135L391.31 272.859C389.579 273.351 389.325 273.282 388.822 271.507L388.011 268.65C387.533 266.961 387.991 266.598 389.592 266.143L391.974 265.468C393.878 264.928 394.218 264.972 394.771 266.92L395.557 269.691Z" fill="#181818"/>
</svg>
