<svg width="872" height="312" viewBox="0 0 872 312" fill="none" xmlns="http://www.w3.org/2000/svg">
<rect x="224" y="84" width="425" height="144" rx="72" fill="#34772C" stroke="#181818" stroke-width="2"/>
<path d="M344.689 157.4C344.689 170.84 334.189 176.78 321.889 176.78C309.829 176.78 299.509 171.38 299.509 158.06C299.509 145.46 309.469 135.2 322.129 135.2C334.429 135.2 344.689 144.98 344.689 157.4ZM332.569 157.88C332.569 155.6 332.389 153.32 331.909 151.04C330.829 146.24 327.889 140.06 322.129 140.06C313.969 140.06 311.869 150.74 311.869 157.04C311.869 163.88 314.029 171.38 322.189 171.38C329.929 171.38 332.569 164.54 332.569 157.88ZM377.619 174.32C377.619 175.82 376.119 176 374.979 176H367.959C365.739 176 366.219 174.5 366.219 172.58C363.699 174.86 360.999 176.9 357.459 176.9C355.419 176.9 353.199 176.06 351.939 174.44C350.499 172.64 350.259 170.12 350.139 167.9L349.779 159.56C349.719 158.06 349.959 156.26 348.219 155.84C347.259 155.6 346.479 155.48 346.479 154.34C346.479 153.44 347.199 152.96 347.919 152.66C349.119 152.12 355.179 149.3 356.079 149.3C357.519 149.3 357.459 151.28 357.519 152.3L357.639 155.42L357.939 163.16C357.999 165.5 358.059 171.38 361.479 171.38C364.899 171.38 366.339 168.32 366.279 165.32L366.219 160.22C366.219 159.08 366.339 156.74 364.899 156.38C363.939 156.14 362.739 156.08 362.739 154.76C362.739 153.8 363.579 153.38 364.359 153.02L371.139 149.9C371.619 149.66 372.219 149.42 372.759 149.42C374.739 149.42 374.259 153.32 374.259 154.52V157.88V163.52C374.259 164.9 374.079 169.88 374.799 171.14C375.579 172.52 377.619 172.76 377.619 174.32ZM404.258 150.62C404.258 150.98 404.198 151.34 404.078 151.7L401.798 158.54C401.498 159.38 401.318 160.1 400.298 160.1C398.918 160.1 398.738 156.86 395.678 156.86C391.538 156.86 390.998 160.94 390.998 164.18V166.94C390.998 169.4 390.818 171.14 393.158 172.34C393.938 172.76 394.658 173.24 394.658 174.2C394.658 175.7 393.158 176 391.958 176H382.238C380.978 176 379.358 175.82 379.358 174.2C379.358 173.24 380.078 172.76 380.858 172.34C381.338 172.1 381.818 171.86 382.178 171.44C383.198 170.18 383.018 165.8 383.018 164.24V159.5C383.018 157.4 382.538 157.34 380.858 157.04C380.138 156.92 379.538 156.14 379.538 155.42C379.538 154.82 380.018 154.4 380.498 154.1L388.358 149.54C388.778 149.3 389.198 149.12 389.738 149.12C391.118 149.12 390.998 150.62 391.058 151.64C391.118 152.78 390.998 153.98 391.178 155.12C394.178 151.7 396.278 149.12 401.078 149.12C402.038 149.12 404.258 149.24 404.258 150.62ZM460.769 163.94C460.769 173 453.209 176.72 445.109 176.72C441.989 176.72 438.689 176.36 435.689 175.7C434.609 175.46 433.469 175.22 432.389 174.98C431.549 174.8 430.529 174.38 429.629 174.38C428.309 174.38 427.949 176.84 426.089 176.84C425.009 176.84 424.289 176 423.809 175.1L418.889 165.56C418.649 165.14 418.529 164.66 418.529 164.18C418.529 163.34 419.069 162.62 419.969 162.62C421.289 162.62 422.849 164.06 423.869 164.84C426.689 167 429.689 168.68 433.169 169.64C435.989 170.42 438.989 170.96 441.929 170.96C444.929 170.96 449.489 169.82 449.489 166.04C449.489 162.08 444.209 160.34 441.209 159.14C436.829 157.4 429.629 154.82 426.029 151.76C423.809 149.9 422.549 147.38 422.549 144.5C422.549 137.36 429.149 135.14 435.209 135.14C437.969 135.14 440.549 135.74 443.249 136.22C443.549 136.28 443.909 136.28 444.209 136.28C445.709 136.28 446.069 134.48 447.569 134.48C448.289 134.48 449.069 135.14 449.489 135.68L455.609 143.84C455.909 144.26 456.209 144.8 456.209 145.28C456.209 146.18 455.489 146.78 454.649 146.78C452.669 146.78 445.529 140.12 438.389 140.12C436.529 140.12 434.429 140.9 434.429 143.06C434.429 143.54 434.549 144.02 434.909 144.44C435.989 145.76 440.249 147.14 441.809 147.74L446.549 149.48C449.669 150.62 453.509 152.24 456.149 154.28C459.149 156.62 460.769 160.16 460.769 163.94ZM484.28 170.96C484.28 172.52 482.24 173.96 481.04 174.62C479.18 175.64 476.42 176.24 474.32 176.24C471.44 176.24 465.92 174.68 465.92 171.02C465.92 170.3 465.98 169.58 466.1 168.86C466.4 166.58 466.52 164.3 466.52 161.96C466.52 159.74 466.58 157.46 466.28 155.24C466.1 153.86 465.5 154.04 464.24 154.04C463.04 154.04 461.54 154.34 461.54 152.72C461.54 151.82 462.02 151.28 462.62 150.68C463.04 150.26 463.58 149.84 464 149.42C466.76 146.66 469.16 143.6 471.5 140.48C471.98 139.88 472.34 139.4 473.12 139.4C474.26 139.4 474.32 140.36 474.32 141.26V147.2C474.32 147.62 474.26 149 474.68 149.3C475.16 149.66 481.46 149.48 482.42 149.48C483.14 149.48 483.62 149.54 483.62 150.38C483.62 151.34 483.2 153.92 481.82 153.92C481.22 153.92 480.56 153.92 479.96 153.92C478.88 153.92 477.8 153.86 476.72 153.86C474.32 153.86 474.56 153.74 474.56 156.44V161.9C474.56 162.98 474.62 164.06 474.62 165.14C474.62 166.46 474.56 170 475.76 170.96C476.18 171.32 476.84 171.38 477.38 171.38C479.96 171.38 481.16 169.4 482.6 169.4C483.5 169.4 484.28 170 484.28 170.96ZM515.805 163.88C515.805 172.7 507.285 176.42 499.605 176.42C490.965 176.42 484.425 171.92 484.425 162.8C484.425 154.4 491.085 148.82 499.245 148.82C507.585 148.82 515.805 155.12 515.805 163.88ZM507.165 167C507.165 163.82 505.605 159.92 503.805 157.34C502.305 155.18 499.605 152.3 496.785 152.3C493.725 152.3 492.405 155.12 492.405 157.82C492.405 162.86 496.605 172.22 502.485 172.22C505.605 172.22 507.165 169.94 507.165 167ZM542.598 150.62C542.598 150.98 542.538 151.34 542.418 151.7L540.138 158.54C539.838 159.38 539.658 160.1 538.638 160.1C537.258 160.1 537.078 156.86 534.018 156.86C529.878 156.86 529.338 160.94 529.338 164.18V166.94C529.338 169.4 529.158 171.14 531.498 172.34C532.278 172.76 532.998 173.24 532.998 174.2C532.998 175.7 531.498 176 530.298 176H520.578C519.318 176 517.698 175.82 517.698 174.2C517.698 173.24 518.418 172.76 519.198 172.34C519.678 172.1 520.158 171.86 520.518 171.44C521.538 170.18 521.358 165.8 521.358 164.24V159.5C521.358 157.4 520.878 157.34 519.198 157.04C518.478 156.92 517.878 156.14 517.878 155.42C517.878 154.82 518.358 154.4 518.838 154.1L526.698 149.54C527.118 149.3 527.538 149.12 528.078 149.12C529.458 149.12 529.338 150.62 529.398 151.64C529.458 152.78 529.338 153.98 529.518 155.12C532.518 151.7 534.618 149.12 539.418 149.12C540.378 149.12 542.598 149.24 542.598 150.62ZM574.828 151.22C574.828 152.48 573.928 152.78 572.968 153.32C570.928 154.46 569.848 156.38 568.948 158.48L561.628 174.98C559.528 179.72 556.408 184.94 550.588 184.94C547.768 184.94 546.388 184.34 545.788 181.46C545.488 180.08 544.708 177.2 544.708 175.88C544.708 175.04 545.128 174.32 546.028 174.32C548.008 174.32 547.888 178.58 551.728 178.58C553.888 178.58 555.208 176.72 556.048 174.98L547.468 156.62C546.808 155.18 546.328 154.1 544.888 153.38C543.868 152.9 542.968 152.66 542.968 151.4C542.968 150.02 543.928 149.66 545.128 149.66H555.748C556.828 149.66 558.028 149.78 558.028 151.16C558.028 153.32 555.508 152.48 555.508 154.28C555.508 154.64 555.868 156.08 556.048 156.44L560.428 165.74L564.388 156.86C564.688 156.2 564.988 155.18 564.988 154.46C564.988 152.72 562.408 153.14 562.408 151.28C562.408 149.9 563.308 149.66 564.508 149.66H572.668C573.808 149.66 574.828 149.9 574.828 151.22Z" fill="#222222"/>
</svg>
