<svg width="346" height="345" viewBox="0 0 346 345" fill="none" xmlns="http://www.w3.org/2000/svg">
<path d="M126.716 8.61785L150.235 25.4689L151.027 26.0364L151.615 25.2594L169.072 2.18575L187.663 24.3566L188.289 25.1032L189.051 24.4968L211.698 6.48946L224.191 32.587L224.612 33.4658L225.501 33.0681L251.915 21.2586L257.525 49.643L257.713 50.5988L258.674 50.4348L287.195 45.5651L285.569 74.4529L285.515 75.4256L286.486 75.5057L315.321 77.8817L306.563 105.458L306.268 106.386L307.189 106.705L334.528 116.178L319.187 140.71L318.67 141.536L319.482 142.073L343.607 158.047L322.647 177.993L321.941 178.665L322.594 179.388L341.988 200.859L316.726 214.966L315.876 215.441L316.328 216.304L329.773 241.924L301.797 249.305L300.855 249.553L301.079 250.502L307.73 278.66L278.797 278.852L277.823 278.858L277.804 279.833L277.243 308.761L249.172 301.751L248.226 301.515L247.966 302.454L240.228 330.334L214.782 316.563L213.925 316.1L213.439 316.944L199.012 342.024L177.789 322.358L177.075 321.695L176.394 322.393L156.183 343.096L140.518 318.77L139.99 317.951L139.158 318.457L114.432 333.484L105.309 306.027L105.002 305.102L104.07 305.385L76.3842 313.791L74.376 284.927L74.3084 283.955L73.335 283.998L44.4288 285.255L49.6619 256.798L49.8381 255.84L48.8847 255.639L20.5742 249.668L32.7196 223.407L33.1286 222.522L32.2552 222.09L6.31911 209.266L24.6138 186.851L25.2299 186.096L24.4913 185.46L2.55932 166.589L25.8537 149.427L26.6382 148.849L26.0808 148.05L9.53105 124.317L36.3615 113.488L37.265 113.124L36.9239 112.211L26.7962 85.1078L55.4769 81.2912L56.4427 81.1627L56.3393 80.1939L53.27 51.4237L81.9987 54.8596L82.9662 54.9753L83.107 54.0112L87.289 25.3816L114.261 35.8541L115.169 36.2068L115.545 35.308L126.716 8.61785Z" fill="#CC2D1E" stroke="#181818" stroke-width="2"/>
</svg>
