<svg width="317" height="317" viewBox="0 0 317 317" fill="none" xmlns="http://www.w3.org/2000/svg">
<path d="M123.726 36.5118L140.971 48.867L141.763 49.4344L142.351 48.6575L155.15 31.7399L168.781 47.9955L169.407 48.7421L170.169 48.1357L186.774 34.9328L195.934 54.0674L196.354 54.9463L197.244 54.5486L216.61 45.8898L220.723 66.7012L220.912 67.6571L221.873 67.4931L242.784 63.9226L241.592 85.1031L241.538 86.0759L242.509 86.1559L263.651 87.898L257.23 108.117L256.935 109.045L257.855 109.364L277.9 116.31L266.652 134.296L266.135 135.122L266.948 135.66L284.636 147.372L269.268 161.996L268.562 162.668L269.215 163.391L283.435 179.134L264.913 189.477L264.062 189.952L264.515 190.815L274.373 209.599L253.861 215.011L252.919 215.26L253.143 216.208L258.019 236.854L236.806 236.994L235.831 237.001L235.812 237.975L235.401 259.185L214.819 254.046L213.874 253.81L213.613 254.748L207.94 275.19L189.283 265.093L188.426 264.63L187.94 265.474L177.362 283.863L161.802 269.443L161.087 268.781L160.406 269.478L145.588 284.658L134.102 266.823L133.574 266.003L132.742 266.509L114.613 277.527L107.924 257.395L107.617 256.471L106.685 256.754L86.3858 262.917L84.9134 241.754L84.8458 240.782L83.8724 240.825L62.6784 241.746L66.5153 220.882L66.6915 219.924L65.7382 219.723L44.9809 215.344L53.8859 196.09L54.2949 195.206L53.4215 194.774L34.4052 185.371L47.8188 168.936L48.4349 168.181L47.6963 167.546L31.6158 153.709L48.6953 141.126L49.4797 140.548L48.9224 139.749L36.7881 122.348L56.4601 114.408L57.3636 114.044L57.0226 113.131L49.5969 93.259L70.6256 90.4607L71.5914 90.3322L71.488 89.3633L69.2376 68.2691L90.3015 70.7883L91.2689 70.904L91.4097 69.9399L94.476 48.9487L114.252 56.6271L115.16 56.9798L115.536 56.081L123.726 36.5118Z" fill="#CC2D1E" stroke="#181818" stroke-width="2"/>
<path d="M132.253 131.109C131.857 132.368 130.971 132.436 129.806 132.473C128.398 132.548 127.836 133.236 127.001 134.242L106.613 157.982C105.505 159.305 105.521 159.252 103.843 158.724C102.898 158.427 102.006 158.146 101.062 157.849C99.3833 157.321 99.2453 157.392 99.0946 155.673L97.7692 141.014L89.2917 152.011C88.2028 153.456 87.9988 153.738 86.2151 153.176L82.8574 152.119C81.2835 151.624 81.0319 151.141 80.9006 149.543L78.0913 119.08C78.0048 118.072 77.9483 116.786 77.1361 116.069C76.3238 115.352 75.4261 114.724 75.8059 113.517C76.3012 111.943 77.5545 111.992 78.9185 112.421L89.4111 115.723C90.8276 116.169 92.1586 116.703 91.6138 118.434C90.9038 120.69 88.5224 118.73 87.9776 120.461C87.829 120.934 87.8018 121.386 87.8271 121.855L89.8145 141.739L96.7921 132.576C97.0126 132.242 97.2332 131.908 97.3487 131.541C98.0422 129.337 94.4816 129.658 95.2247 127.297C95.7365 125.671 97.3405 125.887 98.6521 126.3L107.886 129.206C109.145 129.602 110.531 130.327 110.036 131.901C109.309 134.209 106.567 132.481 106.088 134.003C105.923 134.527 106.006 135.361 106.067 135.899L107.39 147.271L119.996 132.499C120.354 132.093 120.713 131.686 120.878 131.162C121.604 128.853 118.582 129.113 119.259 126.962C119.639 125.755 120.784 125.597 121.886 125.944L130.542 128.668C131.801 129.064 132.716 129.64 132.253 131.109ZM151.357 172.121C151.027 173.17 150.177 173.307 149.233 173.009L139.894 170.07C138.95 169.773 137.599 169.117 137.979 167.911C138.574 166.022 140.996 167.303 141.623 165.31C142.333 163.054 142.57 156.44 142.509 153.884C142.483 152.319 142.316 150.651 140.584 150.107C136.964 148.967 135.749 154.293 135.023 156.602C134.577 158.018 133.03 162.202 133.558 163.636C133.741 164.155 134.147 164.514 134.501 164.856C135.067 165.438 135.565 166.055 135.301 166.895C134.855 168.311 133.389 168.023 132.287 167.676L123.893 165.034C122.739 164.671 121.477 164.101 121.923 162.684C122.187 161.845 122.896 161.607 123.694 161.454C124.179 161.377 124.717 161.315 125.164 160.995C126.35 160.157 127.382 156.33 127.795 155.019L131.972 141.746C132.253 140.854 133.051 138.683 132.567 137.839C132.388 137.494 132.053 137.274 131.736 137.001C131.136 136.524 130.678 136.149 130.942 135.309C131.173 134.575 131.777 134.304 132.47 134.118L140.211 132.057C140.644 131.963 141.094 131.816 141.566 131.964C142.668 132.311 142.255 133.623 142.007 134.41L137.978 147.211C140.343 146.11 142.432 145.153 145.002 145.962C150.773 147.778 149.798 154.909 149.581 159.627C149.516 160.932 149.435 162.291 149.37 163.596C149.228 165.512 148.839 168.215 150.256 169.757C150.947 170.493 151.704 171.019 151.357 172.121ZM178.921 175.145C178.525 176.405 176.488 177.378 175.382 177.779C171.839 179.144 167.193 179.065 163.626 177.943C156.543 175.714 152.487 169.363 154.782 162.071C156.962 155.146 164.489 151.749 171.257 153.879C174.719 154.968 177.651 157.563 179.012 160.932C179.41 161.865 180.258 164.669 179.961 165.613C179.795 166.137 176.754 166.276 176.166 166.494L163.265 167.912C163.669 171.21 165.435 173.842 168.688 174.866C171.259 175.675 173.947 175.194 176.275 174.025C176.827 173.737 177.481 173.308 178.163 173.523C178.897 173.754 179.135 174.463 178.921 175.145ZM171.575 163.493C171.773 162.863 171.595 161.596 171.446 160.973C171.049 159.118 170.01 157.292 168.121 156.697C165.603 155.905 163.841 157.657 163.114 159.965C162.866 160.752 162.13 164.556 163.18 164.887C163.757 165.068 168.945 164.337 169.726 164.237C170.265 164.176 171.377 164.122 171.575 163.493ZM205.874 166.446C205.775 166.761 205.624 167.059 205.42 167.341L201.544 172.694C201.051 173.346 200.695 173.926 199.803 173.645C198.596 173.265 199.331 170.383 196.655 169.541C193.035 168.402 191.44 171.82 190.549 174.653L189.789 177.067C189.112 179.218 188.476 180.69 190.192 182.383C190.758 182.965 191.256 183.583 190.991 184.422C190.579 185.734 189.185 185.583 188.135 185.253L179.636 182.578C178.535 182.231 177.168 181.628 177.613 180.212C177.878 179.372 178.639 179.151 179.437 178.998C179.923 178.92 180.408 178.842 180.839 178.574C182.077 177.753 183.125 173.874 183.554 172.51L184.859 168.365C185.437 166.529 185.034 166.345 183.647 165.62C183.051 165.317 182.741 164.47 182.939 163.84C183.104 163.316 183.639 163.08 184.141 162.95L192.269 161.126C192.702 161.032 193.119 160.99 193.591 161.138C194.798 161.518 194.28 162.797 194.052 163.705C193.791 164.718 193.356 165.735 193.199 166.781C196.763 164.616 199.31 162.938 203.507 164.259C204.346 164.523 206.254 165.239 205.874 166.446ZM226.619 190.157C226.223 191.416 224.187 192.39 223.08 192.791C219.537 194.156 214.891 194.077 211.324 192.955C204.241 190.725 200.186 184.375 202.481 177.083C204.66 170.158 212.187 166.76 218.955 168.89C222.418 169.98 225.349 172.575 226.71 175.944C227.109 176.877 227.956 179.68 227.659 180.625C227.494 181.149 224.452 181.287 223.864 181.506L210.964 182.924C211.367 186.222 213.134 188.854 216.386 189.877C218.957 190.686 221.645 190.206 223.974 189.036C224.525 188.749 225.179 188.32 225.861 188.535C226.596 188.766 226.834 189.475 226.619 190.157ZM219.274 178.505C219.472 177.875 219.294 176.608 219.144 175.984C218.748 174.13 217.708 172.303 215.819 171.709C213.301 170.917 211.539 172.668 210.812 174.977C210.565 175.764 209.829 179.568 210.878 179.898C211.455 180.08 216.644 179.349 217.425 179.249C217.963 179.188 219.075 179.134 219.274 178.505ZM252.564 177.335C251.54 180.587 249.511 183.005 246.404 184.449L243.833 185.657C242.279 186.379 240.365 187.333 239.522 188.913C238.932 190.054 238.629 190.65 237.265 190.221C235.534 189.676 235.422 188.199 235.9 186.678C236.776 183.897 238.654 182.874 240.905 181.219C242.486 180.044 244.869 177.969 245.48 176.028C245.975 174.454 245.829 171.986 243.94 171.392C242.367 170.896 241.045 171.98 240.583 173.449C240.286 174.393 240.419 175.069 241.383 175.488C241.35 175.593 241.369 175.714 241.336 175.819C240.907 177.183 238.511 177.467 237.357 177.104C234.052 176.063 232.969 172.724 233.943 169.629C235.562 164.488 240.946 162.953 245.72 164.456C251.386 166.239 254.364 171.616 252.564 177.335ZM238.976 198.89C238.365 200.831 238.037 200.958 236.096 200.347L232.319 199.158C230.482 198.58 230.372 198.2 230.949 196.363L232.171 192.481C232.716 190.75 233.042 190.449 234.825 191.01L238.498 192.166C240.229 192.711 240.826 193.014 240.248 194.85L238.976 198.89Z" fill="#222222"/>
</svg>
